HIERARCHY
ROOT Hips
{
	OFFSET 0.000000 100.481300 0.000000
	CHANNELS 6 Xposition Yposition Zposition Xrotation Yrotation Zrotation
	JOINT Spine
	{
		OFFSET -0.279200 12.230698 -2.892100
		CHANNELS 3 Xrotation Yrotation Zrotation
		JOINT Spine1
		{
			OFFSET -0.325700 14.269203 -3.374200
			CHANNELS 3 Xrotation Yrotation Zrotation
			JOINT Spine2
			{
				OFFSET -0.372300 16.307602 -0.352600
				CHANNELS 3 Xrotation Yrotation Zrotation
				JOINT Neck
				{
					OFFSET -0.418800 17.814194 8.416900
					CHANNELS 3 Xrotation Yrotation Zrotation
					JOINT Head
					{
						OFFSET 0.000000 7.031097 3.806800
						CHANNELS 3 Xrotation Yrotation Zrotation
						JOINT HeadTop_End
						{
							OFFSET 0.000000 24.646606 12.978600
							CHANNELS 3 Xrotation Yrotation Zrotation
							End Site
							{
								OFFSET 0.000000 27.854965 0.000000
							}
						}
					}
				}
				JOINT LeftShoulder
				{
					OFFSET 16.952999 14.495407 -7.737500
					CHANNELS 3 Xrotation Yrotation Zrotation
					JOINT LeftArm
					{
						OFFSET 9.308998 -2.777710 0.208600
						CHANNELS 3 Xrotation Yrotation Zrotation
						JOINT LeftForeArm
						{
							OFFSET 29.972298 0.000000 0.000000
							CHANNELS 3 Xrotation Yrotation Zrotation
							JOINT LeftHand
							{
								OFFSET 26.026505 0.000000 0.000000
								CHANNELS 3 Xrotation Yrotation Zrotation
								JOINT LeftHandThumb1
								{
									OFFSET 12.240501 -7.147949 9.207150
									CHANNELS 3 Xrotation Yrotation Zrotation
									JOINT LeftHandThumb2
									{
										OFFSET 4.138618 -2.389435 2.389433
										CHANNELS 3 Xrotation Yrotation Zrotation
										JOINT LeftHandThumb3
										{
											OFFSET 2.726913 -1.574387 1.574386
											CHANNELS 3 Xrotation Yrotation Zrotation
											JOINT LeftHandThumb4
											{
												OFFSET 3.941010 -2.275345 2.275342
												CHANNELS 3 Xrotation Yrotation Zrotation
												End Site
												{
													OFFSET -0.005798 5.087799 0.009903
												}
											}
										}
									}
								}
								JOINT LeftHandIndex1
								{
									OFFSET 24.424698 -1.985611 5.953459
									CHANNELS 3 Xrotation Yrotation Zrotation
									JOINT LeftHandIndex2
									{
										OFFSET 6.426697 0.000000 0.000000
										CHANNELS 3 Xrotation Yrotation Zrotation
										JOINT LeftHandIndex3
										{
											OFFSET 5.337898 0.000000 0.000000
											CHANNELS 3 Xrotation Yrotation Zrotation
											JOINT LeftHandIndex4
											{
												OFFSET 4.409401 0.000000 0.000000
												CHANNELS 3 Xrotation Yrotation Zrotation
												End Site
												{
													OFFSET 0.000000 4.409363 0.014373
												}
											}
										}
									}
								}
								JOINT LeftHandMiddle1
								{
									OFFSET 23.810104 0.000000 0.000000
									CHANNELS 3 Xrotation Yrotation Zrotation
									JOINT LeftHandMiddle2
									{
										OFFSET 7.176498 0.000000 0.000000
										CHANNELS 3 Xrotation Yrotation Zrotation
										JOINT LeftHandMiddle3
										{
											OFFSET 6.774902 0.000000 0.000000
											CHANNELS 3 Xrotation Yrotation Zrotation
											JOINT LeftHandMiddle4
											{
												OFFSET 5.403328 0.000000 0.000000
												CHANNELS 3 Xrotation Yrotation Zrotation
												End Site
												{
													OFFSET -0.027702 5.403244 0.017414
												}
											}
										}
									}
								}
								JOINT LeftHandRing1
								{
									OFFSET 22.908401 -0.839279 -6.020567
									CHANNELS 3 Xrotation Yrotation Zrotation
									JOINT LeftHandRing2
									{
										OFFSET 6.337502 0.000000 0.000000
										CHANNELS 3 Xrotation Yrotation Zrotation
										JOINT LeftHandRing3
										{
											OFFSET 5.779297 0.000000 0.000000
											CHANNELS 3 Xrotation Yrotation Zrotation
											JOINT LeftHandRing4
											{
												OFFSET 4.965698 0.000000 0.000000
												CHANNELS 3 Xrotation Yrotation Zrotation
												End Site
												{
													OFFSET 0.000000 4.965668 0.016186
												}
											}
										}
									}
								}
								JOINT LeftHandPinky1
								{
									OFFSET 20.037003 -1.530319 -10.950146
									CHANNELS 3 Xrotation Yrotation Zrotation
									JOINT LeftHandPinky2
									{
										OFFSET 5.254700 0.000000 0.000000
										CHANNELS 3 Xrotation Yrotation Zrotation
										JOINT LeftHandPinky3
										{
											OFFSET 4.810204 0.000000 0.000000
											CHANNELS 3 Xrotation Yrotation Zrotation
											JOINT LeftHandPinky4
											{
												OFFSET 3.647202 0.000000 0.000000
												CHANNELS 3 Xrotation Yrotation Zrotation
												End Site
												{
													OFFSET 0.000000 3.647186 0.011889
												}
											}
										}
									}
								}
							}
						}
					}
				}
				JOINT RightShoulder
				{
					OFFSET -15.141001 14.495407 -7.737500
					CHANNELS 3 Xrotation Yrotation Zrotation
					JOINT RightArm
					{
						OFFSET -9.308998 -2.777710 0.208500
						CHANNELS 3 Xrotation Yrotation Zrotation
						JOINT RightForeArm
						{
							OFFSET -29.972300 0.000000 0.000000
							CHANNELS 3 Xrotation Yrotation Zrotation
							JOINT RightHand
							{
								OFFSET -26.026505 0.000000 0.000000
								CHANNELS 3 Xrotation Yrotation Zrotation
								JOINT RightHandThumb1
								{
									OFFSET -12.240601 -7.148026 9.207092
									CHANNELS 3 Xrotation Yrotation Zrotation
									JOINT RightHandThumb2
									{
										OFFSET -4.138618 -2.389435 2.389433
										CHANNELS 3 Xrotation Yrotation Zrotation
										JOINT RightHandThumb3
										{
											OFFSET -2.726974 -1.574417 1.574421
											CHANNELS 3 Xrotation Yrotation Zrotation
											JOINT RightHandThumb4
											{
												OFFSET -3.941010 -2.275345 2.275343
												CHANNELS 3 Xrotation Yrotation Zrotation
												End Site
												{
													OFFSET 0.005814 5.087799 0.009927
												}
											}
										}
									}
								}
								JOINT RightHandIndex1
								{
									OFFSET -24.424698 -1.985657 5.953444
									CHANNELS 3 Xrotation Yrotation Zrotation
									JOINT RightHandIndex2
									{
										OFFSET -6.426697 0.000000 0.000000
										CHANNELS 3 Xrotation Yrotation Zrotation
										JOINT RightHandIndex3
										{
											OFFSET -5.337898 0.000000 0.000000
											CHANNELS 3 Xrotation Yrotation Zrotation
											JOINT RightHandIndex4
											{
												OFFSET -4.409401 0.000000 0.000000
												CHANNELS 3 Xrotation Yrotation Zrotation
												End Site
												{
													OFFSET 0.000000 4.409363 0.014408
												}
											}
										}
									}
								}
								JOINT RightHandMiddle1
								{
									OFFSET -23.810097 0.000000 0.000000
									CHANNELS 3 Xrotation Yrotation Zrotation
									JOINT RightHandMiddle2
									{
										OFFSET -7.176498 0.000000 0.000000
										CHANNELS 3 Xrotation Yrotation Zrotation
										JOINT RightHandMiddle3
										{
											OFFSET -6.774902 0.000000 0.000000
											CHANNELS 3 Xrotation Yrotation Zrotation
											JOINT RightHandMiddle4
											{
												OFFSET -5.403328 0.000000 0.000000
												CHANNELS 3 Xrotation Yrotation Zrotation
												End Site
												{
													OFFSET 0.027702 5.403244 0.017457
												}
											}
										}
									}
								}
								JOINT RightHandRing1
								{
									OFFSET -22.908302 -0.839325 -6.020576
									CHANNELS 3 Xrotation Yrotation Zrotation
									JOINT RightHandRing2
									{
										OFFSET -6.337502 0.000000 0.000000
										CHANNELS 3 Xrotation Yrotation Zrotation
										JOINT RightHandRing3
										{
											OFFSET -5.779297 0.000000 0.000000
											CHANNELS 3 Xrotation Yrotation Zrotation
											JOINT RightHandRing4
											{
												OFFSET -4.965698 0.000000 0.000000
												CHANNELS 3 Xrotation Yrotation Zrotation
												End Site
												{
													OFFSET 0.000000 4.965668 0.016226
												}
											}
										}
									}
								}
								JOINT RightHandPinky1
								{
									OFFSET -20.037003 -1.530334 -10.950259
									CHANNELS 3 Xrotation Yrotation Zrotation
									JOINT RightHandPinky2
									{
										OFFSET -5.254700 0.000000 0.000000
										CHANNELS 3 Xrotation Yrotation Zrotation
										JOINT RightHandPinky3
										{
											OFFSET -4.810204 0.000000 0.000000
											CHANNELS 3 Xrotation Yrotation Zrotation
											JOINT RightHandPinky4
											{
												OFFSET -3.647202 0.000000 0.000000
												CHANNELS 3 Xrotation Yrotation Zrotation
												End Site
												{
													OFFSET 0.000000 3.647186 0.011917
												}
											}
										}
									}
								}
							}
						}
					}
				}
			}
		}
	}
	JOINT LeftUpLeg
	{
		OFFSET 15.427100 -6.655098 0.678600
		CHANNELS 3 Xrotation Yrotation Zrotation
		JOINT LeftLeg
		{
			OFFSET 4.081073 -39.591068 13.024000
			CHANNELS 3 Xrotation Yrotation Zrotation
			JOINT LeftFoot
			{
				OFFSET -4.081074 -37.707932 -15.979700
				CHANNELS 3 Xrotation Yrotation Zrotation
				JOINT LeftToeBase
				{
					OFFSET 5.346399 -15.068900 20.645000
					CHANNELS 3 Xrotation Yrotation Zrotation
					JOINT LeftToe_End
					{
						OFFSET 2.754700 0.931300 11.300900
						CHANNELS 3 Xrotation Yrotation Zrotation
						End Site
						{
							OFFSET 0.000000 11.669021 0.000000
						}
					}
				}
			}
		}
	}
	JOINT RightUpLeg
	{
		OFFSET -15.569500 -6.655098 0.678600
		CHANNELS 3 Xrotation Yrotation Zrotation
		JOINT RightLeg
		{
			OFFSET -4.081825 -39.591045 13.023800
			CHANNELS 3 Xrotation Yrotation Zrotation
			JOINT RightFoot
			{
				OFFSET 4.081824 -37.707954 -15.979600
				CHANNELS 3 Xrotation Yrotation Zrotation
				JOINT RightToeBase
				{
					OFFSET -5.346400 -15.068900 20.645000
					CHANNELS 3 Xrotation Yrotation Zrotation
					JOINT RightToe_End
					{
						OFFSET -2.754700 0.931300 11.300900
						CHANNELS 3 Xrotation Yrotation Zrotation
						End Site
						{
							OFFSET 0.000000 11.669021 0.000000
						}
					}
				}
			}
		}
	}
}
MOTION
Frames: 4
Frame Time: 0.033333
237.638992 81.075760 7.459248 -10.328397 -159.990720 -6.379564 5.198310 -0.013934 -1.653407 1.022046 -0.021364 1.186175 1.018165 0.161464 1.180846 12.405577 7.450586 -3.960156 0.208645 44.070426 -19.152397 0.000001 -0.000001 0.000001 0.163167 -8.692104 -13.124145 -22.913497 14.569678 -27.281575 0.000012 -62.518695 0.000007 9.766315 -19.818916 30.310942 4.891675 7.994789 1.884005 10.475090 36.544330 -16.206449 18.107231 67.043238 3.186257 -0.000001 0.000002 0.000000 7.775673 6.956324 -86.152707 10.250110 6.003556 -119.372077 9.029911 6.538652 -108.236403 0.000000 0.000001 -0.000001 6.544539 6.873011 -87.274293 9.404164 6.404074 -111.556018 9.208623 6.477428 -109.813063 0.000000 0.000004 -0.000001 3.127859 6.869488 -89.819638 9.007636 6.545900 -108.040738 8.561879 6.673718 -104.169927 0.000001 -0.000000 0.000000 1.160381 7.315421 -94.148441 8.017675 2.700469 -99.510699 10.792530 5.665896 -124.703941 -0.000000 0.000002 -0.000001 0.385933 9.390537 14.316637 1.510793 48.655874 42.054373 -0.000038 116.510624 0.000032 -8.913373 21.028752 -3.171236 2.101989 -10.083004 3.633765 25.660765 -30.716689 6.844825 36.126339 -53.497808 18.680871 -0.000001 0.000002 0.000004 9.556167 -7.137705 86.157912 10.350221 -6.061979 119.375519 9.118075 -6.602323 108.238841 -0.000004 -0.000000 0.000001 6.610156 -6.940042 87.289428 9.494157 -6.467124 111.542604 9.295805 -6.532971 109.815338 0.000001 0.000001 0.000001 1.946419 -7.142798 92.181121 8.379081 -6.800006 101.912303 8.643626 -6.731584 104.171661 0.000001 -0.000001 0.000001 -2.850691 -7.674960 94.127486 8.100963 -6.852409 99.572690 10.897915 -5.720987 124.707752 0.000001 -0.000001 -0.000001 -41.405512 4.971808 38.107046 32.484366 3.494419 -1.515742 5.481313 1.611020 -25.055890 -0.000023 -0.000026 -0.000010 -0.000000 0.000000 0.000000 -24.771641 -6.383771 -29.809486 28.967522 11.120177 8.052613 -15.235826 -2.659017 19.303906 -0.000064 -0.000002 -0.000001 0.000000 -0.000000 0.000000 
237.852142 81.100304 7.333853 -10.414030 -159.852491 -6.492835 5.244724 -0.054171 -1.705969 1.034607 -0.045596 1.178819 1.031620 0.138004 1.174812 12.343121 7.471225 -4.013566 -0.245283 44.166732 -18.771424 0.000001 -0.000000 -0.000000 0.175678 -8.616541 -12.971836 -22.780568 14.482735 -27.516334 -0.000025 -62.488499 -0.000036 9.767181 -19.823217 30.458078 4.891690 7.994772 1.884001 10.475055 36.544353 -16.206410 18.107170 67.043238 3.186323 -0.000001 -0.000001 0.000002 7.775660 6.956301 -86.152728 10.250093 6.003573 -119.372063 9.029905 6.538651 -108.236410 -0.000001 0.000001 -0.000001 6.544536 6.873014 -87.274327 9.404166 6.404066 -111.556004 9.208624 6.477430 -109.813063 -0.000002 -0.000001 0.000001 3.127847 6.869488 -89.819672 9.007618 6.545905 -108.040718 8.561872 6.673744 -104.169920 -0.000002 -0.000001 0.000002 1.160371 7.315408 -94.148420 8.017682 2.700471 -99.510686 10.792538 5.665890 -124.703941 -0.000000 -0.000001 0.000000 0.398092 9.243561 14.117241 1.714688 48.172771 41.987481 -0.000010 116.336795 0.000001 -8.801010 20.854364 -3.256636 2.101970 -10.083005 3.633748 25.660749 -30.716689 6.844825 36.126346 -53.497832 18.680883 0.000001 -0.000000 -0.000002 9.556156 -7.137696 86.157905 10.350204 -6.061989 119.375519 9.118066 -6.602318 108.238841 -0.000006 -0.000002 0.000000 6.610158 -6.940031 87.289408 9.494158 -6.467097 111.542610 9.295805 -6.532957 109.815365 -0.000001 -0.000002 -0.000001 1.946405 -7.142780 92.181128 8.379087 -6.800016 101.912344 8.643644 -6.731589 104.171641 -0.000001 -0.000001 -0.000000 -2.850689 -7.674961 94.127486 8.100974 -6.852415 99.572683 10.897910 -5.720980 124.707752 -0.000001 0.000002 0.000000 -41.425039 4.926270 38.269372 32.191501 3.547765 -1.483997 5.769501 1.565805 -25.189248 0.000009 0.000010 -0.000001 0.000000 -0.000002 0.000000 -24.717208 -6.403027 -29.560430 29.114842 11.088267 8.097096 -15.439264 -2.794347 19.074010 -0.000059 0.000004 -0.000005 -0.000000 -0.000000 0.000000 
238.053894 81.103699 7.180675 -10.520875 -159.591222 -6.689654 5.319362 -0.086081 -1.777058 1.051029 -0.065608 1.189672 1.048631 0.122670 1.186597 12.202836 7.478227 -3.984661 -0.590365 44.162200 -18.419407 -0.000001 -0.000001 0.000000 0.199613 -8.477918 -12.609203 -22.528291 14.324175 -28.210817 -0.000029 -62.391046 -0.000041 10.077738 -19.869942 30.783997 4.891678 7.994769 1.884000 10.475095 36.544347 -16.206437 18.107207 67.043224 3.186285 0.000000 -0.000001 0.000001 7.775663 6.956303 -86.152700 10.250106 6.003560 -119.372077 9.029901 6.538650 -108.236403 -0.000002 -0.000001 0.000000 6.544542 6.873008 -87.274293 9.404156 6.404068 -111.556025 9.208607 6.477432 -109.813049 -0.000000 -0.000001 0.000001 3.127858 6.869495 -89.819638 9.007633 6.545900 -108.040718 8.561881 6.673730 -104.169913 0.000000 0.000002 0.000002 1.160355 7.315408 -94.148420 8.017665 2.700485 -99.510699 10.792528 5.665901 -124.703927 -0.000004 0.000002 -0.000002 0.416203 9.037899 13.976880 2.412325 47.426030 41.268611 -0.000009 116.044354 0.000003 -9.085028 20.696139 -3.384103 2.101972 -10.083008 3.633755 25.660795 -30.716689 6.844849 36.126295 -53.497836 18.680853 -0.000000 -0.000000 -0.000001 9.556171 -7.137708 86.157919 10.350221 -6.061991 119.375533 9.118075 -6.602310 108.238834 -0.000001 0.000000 -0.000001 6.610154 -6.940053 87.289428 9.494176 -6.467117 111.542617 9.295813 -6.532952 109.815358 -0.000000 -0.000001 0.000001 1.946430 -7.142809 92.181141 8.379098 -6.800019 101.912317 8.643639 -6.731589 104.171648 0.000002 -0.000002 -0.000002 -2.850672 -7.674959 94.127472 8.100977 -6.852408 99.572683 10.897925 -5.720971 124.707766 0.000002 -0.000001 0.000002 -41.637940 4.925134 38.550441 31.936704 3.423844 -1.584384 6.084064 1.499290 -25.148939 -0.000025 -0.000012 0.000003 0.000000 -0.000002 -0.000000 -24.614412 -6.595380 -29.370691 29.202402 11.066451 8.259606 -15.661248 -2.865975 18.807015 -0.000033 0.000007 0.000000 0.000000 -0.000000 -0.000000 
238.198959 81.063416 7.005857 -10.693002 -159.235806 -7.044021 5.397440 -0.126141 -1.831754 1.063983 -0.098873 1.230949 1.062562 0.098085 1.229488 11.957705 7.482914 -3.930534 -0.874854 44.099454 -18.020983 0.000001 0.000000 -0.000000 0.222394 -8.337521 -12.253959 -22.103911 14.247180 -29.022594 -0.000003 -62.297083 -0.000017 10.467694 -19.934165 31.166334 4.891674 7.994775 1.884004 10.475091 36.544323 -16.206441 18.107176 67.043245 3.186317 0.000000 0.000002 0.000001 7.775680 6.956304 -86.152728 10.250110 6.003563 -119.372036 9.029905 6.538642 -108.236423 0.000003 -0.000002 0.000001 6.544550 6.873004 -87.274293 9.404154 6.404069 -111.556004 9.208622 6.477430 -109.813063 -0.000000 -0.000001 0.000000 3.127856 6.869474 -89.819665 9.007601 6.545901 -108.040738 8.561865 6.673739 -104.169920 0.000000 -0.000002 0.000000 1.160383 7.315401 -94.148441 8.017691 2.700476 -99.510720 10.792540 5.665886 -124.703955 -0.000000 0.000000 0.000000 0.435683 8.798721 13.792362 3.740536 46.560378 39.895538 0.000026 115.494510 -0.000029 -9.820671 20.823001 -4.041926 2.101978 -10.083016 3.633758 25.660775 -30.716689 6.844838 36.126329 -53.497822 18.680880 0.000002 0.000001 0.000002 9.556168 -7.137707 86.157925 10.350208 -6.061992 119.375533 9.118062 -6.602304 108.238848 -0.000001 -0.000004 -0.000002 6.610144 -6.940054 87.289421 9.494172 -6.467122 111.542631 9.295796 -6.532957 109.815351 -0.000003 0.000003 0.000000 1.946419 -7.142807 92.181121 8.379093 -6.799996 101.912331 8.643656 -6.731587 104.171655 -0.000002 -0.000000 0.000001 -2.850686 -7.674969 94.127493 8.100973 -6.852411 99.572656 10.897911 -5.720978 124.707752 0.000002 0.000001 0.000001 -42.203278 4.957110 39.000080 31.808509 2.897376 -1.878122 6.326450 1.427783 -24.838263 -0.000026 -0.000017 0.000001 -0.000000 0.000002 0.000000 -24.477274 -6.957782 -29.243182 29.159877 11.067072 8.600310 -15.864919 -2.856136 18.520440 -0.000003 -0.000002 0.000000 -0.000000 -0.000000 -0.000000 
